<?xml version="1.0" encoding="utf-8"?>
<!-- Generator: Adobe Illustrator 18.1.1, SVG Export Plug-In . SVG Version: 6.00 Build 0)  -->
<svg version="1.1" id="Layer_1" xmlns="http://www.w3.org/2000/svg" xmlns:xlink="http://www.w3.org/1999/xlink" x="0px" y="0px"
	 viewBox="10 -10 40 40" enable-background="new 10 -10 40 40" xml:space="preserve">
<g id="calendar" display="none">
	<path display="inline" fill="#999999" d="M46.9-5.3h-5v-2.4c0-0.6-0.4-1-1-1c-0.6,0-1,0.4-1,1v2.4H20.1v-2.4c0-0.6-0.4-1-1-1
		s-1,0.4-1,1v2.4h-5c-1.7,0-3,1.3-3,3v28.1c0,1.7,1.3,3,3,3h33.8c1.7,0,3-1.3,3-3V-2.3C49.9-4,48.5-5.3,46.9-5.3z M13.1-3.3h5v3.8
		c0,0.6,0.4,1,1,1s1-0.4,1-1v-3.8h19.8v3.8c0,0.6,0.4,1,1,1s1-0.4,1-1v-3.8h5c0.6,0,1,0.4,1,1v5.2H12.1v-5.2
		C12.1-2.9,12.6-3.3,13.1-3.3z M46.9,26.7H13.1c-0.6,0-1-0.4-1-1V4.8h35.8v20.9C47.9,26.3,47.4,26.7,46.9,26.7z"/>
</g>
<path fill="#FFFFFF" d="M43.3,21.9L31.4,10L43.3-1.9c0.4-0.4,0.4-1,0-1.4c-0.4-0.4-1-0.4-1.4,0L30,8.6L18.1-3.3
	c-0.4-0.4-1-0.4-1.4,0s-0.4,1,0,1.4L28.6,10L16.7,21.9c-0.4,0.4-0.4,1,0,1.4c0.2,0.2,0.5,0.3,0.7,0.3c0.3,0,0.5-0.1,0.7-0.3L30,11.4
	l11.9,11.9c0.2,0.2,0.5,0.3,0.7,0.3s0.5-0.1,0.7-0.3C43.7,22.9,43.7,22.2,43.3,21.9z"/>
</svg>
