<?xml version="1.0" encoding="utf-8"?>
<!-- Generator: Adobe Illustrator 18.1.1, SVG Export Plug-In . SVG Version: 6.00 Build 0)  -->
<svg version="1.1" id="Layer_1" xmlns="http://www.w3.org/2000/svg" xmlns:xlink="http://www.w3.org/1999/xlink" x="0px" y="0px"
	 viewBox="0 0 20 20" enable-background="new 0 0 20 20" xml:space="preserve">
<g>
	<path fill="#CC8BB4" d="M18.2,4.3H1.8C1.5,4.3,1.2,4,1.2,3.7V3.3c0-0.3,0.3-0.6,0.6-0.6h16.3c0.3,0,0.6,0.3,0.6,0.6v0.4
		C18.8,4,18.5,4.3,18.2,4.3z"/>
	<path fill="#CC8BB4" d="M18.2,10.8H1.8c-0.3,0-0.6-0.3-0.6-0.6V9.8c0-0.3,0.3-0.6,0.6-0.6h16.3c0.3,0,0.6,0.3,0.6,0.6v0.4
		C18.8,10.5,18.5,10.8,18.2,10.8z"/>
	<path fill="#CC8BB4" d="M18.2,17.3H1.8c-0.3,0-0.6-0.3-0.6-0.6v-0.4c0-0.3,0.3-0.6,0.6-0.6h16.3c0.3,0,0.6,0.3,0.6,0.6v0.4
		C18.8,17,18.5,17.3,18.2,17.3z"/>
</g>
</svg>
